<svg width="250" height="250" viewBox="0 0 250 250" fill="none" xmlns="http://www.w3.org/2000/svg">
<g clip-path="url(#clip0_192_2)">
<path d="M91.75 25.25V3.08334H158.25V25.25H91.75ZM113.917 147.167H136.083V80.6667H113.917V147.167ZM125 235.833C111.331 235.833 98.4462 233.201 86.3469 227.936C74.2476 222.672 63.6722 215.514 54.6208 206.463C45.5694 197.411 38.4115 186.836 33.1469 174.736C27.8823 162.637 25.25 149.753 25.25 136.083C25.25 122.414 27.8823 109.53 33.1469 97.4302C38.4115 85.3309 45.5694 74.7556 54.6208 65.7042C63.6722 56.6528 74.2476 49.4948 86.3469 44.2302C98.4462 38.9656 111.331 36.3333 125 36.3333C136.453 36.3333 147.444 38.1806 157.973 41.875C168.502 45.5695 178.385 50.9264 187.621 57.9458L203.137 42.4292L218.654 57.9458L203.137 73.4625C210.157 82.6986 215.514 92.5813 219.208 103.11C222.903 113.64 224.75 124.631 224.75 136.083C224.75 149.753 222.118 162.637 216.853 174.736C211.589 186.836 204.431 197.411 195.379 206.463C186.328 215.514 175.752 222.672 163.653 227.936C151.554 233.201 138.669 235.833 125 235.833ZM125 213.667C146.428 213.667 164.715 206.093 179.863 190.946C195.01 175.799 202.583 157.511 202.583 136.083C202.583 114.656 195.01 96.3681 179.863 81.2208C164.715 66.0736 146.428 58.5 125 58.5C103.572 58.5 85.2847 66.0736 70.1375 81.2208C54.9903 96.3681 47.4167 114.656 47.4167 136.083C47.4167 157.511 54.9903 175.799 70.1375 190.946C85.2847 206.093 103.572 213.667 125 213.667Z" fill="#527A61"/>
</g>
<defs>
<clipPath id="clip0_192_2">
<rect width="250" height="250" fill="white"/>
</clipPath>
</defs>
</svg>
