<svg width="250" height="250" viewBox="0 0 250 250" fill="none" xmlns="http://www.w3.org/2000/svg">
<path d="M29 66.9545V19H77V38.1818H48.2V66.9545H29ZM201.8 66.9545V38.1818H173V19H221V66.9545H201.8ZM29 230V182.045H48.2V210.818H77V230H29ZM173 230V210.818H201.8V182.045H221V230H173ZM77 182.045H173V66.9545H77V182.045ZM77 201.227C71.72 201.227 67.2 199.349 63.44 195.593C59.68 191.836 57.8 187.32 57.8 182.045V66.9545C57.8 61.6795 59.68 57.1638 63.44 53.4074C67.2 49.6509 71.72 47.7727 77 47.7727H173C178.28 47.7727 182.8 49.6509 186.56 53.4074C190.32 57.1638 192.2 61.6795 192.2 66.9545V182.045C192.2 187.32 190.32 191.836 186.56 195.593C182.8 199.349 178.28 201.227 173 201.227H77ZM96.2 105.318H153.8V86.1364H96.2V105.318ZM96.2 134.091H153.8V114.909H96.2V134.091ZM96.2 162.864H153.8V143.682H96.2V162.864Z" fill="#527A61"/>
</svg>
