<svg width="250" height="250" viewBox="0 0 250 250" fill="none" xmlns="http://www.w3.org/2000/svg">
<g clip-path="url(#clip0_169_6)">
<path d="M119 229.167C104.59 229.167 91.0488 226.432 78.3752 220.964C65.7016 215.495 54.6772 208.073 45.3022 198.698C35.9272 189.323 28.5054 178.299 23.0366 165.625C17.5679 152.951 14.8335 139.41 14.8335 125C14.8335 110.59 17.5679 97.0486 23.0366 84.375C28.5054 71.7014 35.9272 60.6771 45.3022 51.3021C54.6772 41.9271 65.7016 34.5052 78.3752 29.0365C91.0488 23.5677 104.59 20.8333 119 20.8333C145.389 20.8333 168.262 29.3403 187.62 46.3542C206.978 63.3681 218.479 84.5486 222.125 109.896C218.653 108.16 215.051 106.814 211.318 105.859C207.585 104.905 203.722 104.34 199.729 104.167C196.431 91.4931 190.485 80.2083 181.891 70.3125C173.297 60.4167 162.75 52.9514 150.25 47.9167V52.0833C150.25 57.8125 148.21 62.717 144.13 66.7969C140.051 70.8767 135.146 72.9167 129.417 72.9167H108.584V93.75C108.584 96.7014 107.585 99.1754 105.589 101.172C103.592 103.168 101.118 104.167 98.1668 104.167H77.3335V125H139.834C141.743 125 143.523 125.477 145.172 126.432C146.821 127.387 148.08 128.733 148.948 130.469C145.997 135.156 143.74 140.104 142.177 145.313C140.615 150.521 139.834 155.903 139.834 161.458C139.834 172.396 142.655 182.552 148.297 191.927C153.939 201.302 159.712 210.069 165.615 218.229C158.497 221.701 151.031 224.392 143.219 226.302C135.406 228.212 127.334 229.167 119 229.167ZM108.584 207.812V187.5C102.854 187.5 97.9498 185.46 93.87 181.38C89.7901 177.3 87.7502 172.396 87.7502 166.667V156.25L37.7502 106.25C37.2293 109.375 36.7519 112.5 36.3179 115.625C35.8838 118.75 35.6668 121.875 35.6668 125C35.6668 146.007 42.5679 164.41 56.37 180.208C70.172 196.007 87.5766 205.208 108.584 207.812Z" fill="#2F5C9F"/>
<path fill-rule="evenodd" clip-rule="evenodd" d="M197.125 229.167C195.91 229.167 194.868 228.819 194 228.125C193.132 227.431 192.525 226.562 192.177 225.521C190.268 219.444 187.577 213.802 184.104 208.594C180.632 203.385 176.9 198.264 172.907 193.229C169.261 188.715 166.309 183.767 164.052 178.385C161.795 173.003 160.667 167.361 160.667 161.458C160.667 151.389 164.226 142.795 171.344 135.677C178.462 128.559 187.056 125 197.125 125C207.195 125 215.789 128.559 222.907 135.677C230.025 142.795 233.584 151.389 233.584 161.458C233.584 167.361 232.412 172.96 230.068 178.255C227.724 183.55 224.816 188.542 221.344 193.229C217.351 198.264 213.618 203.385 210.146 208.594C206.674 213.802 203.983 219.444 202.073 225.521C201.726 226.562 201.118 227.431 200.25 228.125C199.382 228.819 198.341 229.167 197.125 229.167ZM202.854 191.536C200.771 194.054 198.861 196.788 197.125 199.74C195.389 196.788 193.523 194.054 191.526 191.536C189.53 189.019 187.49 186.458 185.407 183.854C182.976 180.556 180.849 177.04 179.026 173.307C177.203 169.575 176.292 165.625 176.292 161.458C176.292 155.729 178.332 150.825 182.412 146.745C186.492 142.665 191.396 140.625 197.125 140.625C202.854 140.625 207.759 142.665 211.839 146.745C215.919 150.825 217.959 155.729 217.959 161.458C217.959 165.625 217.047 169.575 215.224 173.307C213.401 177.04 211.275 180.556 208.844 183.854C206.934 186.458 204.938 189.019 202.854 191.536Z" fill="#17C46D"/>
<path d="M187.881 170.703C190.398 173.22 193.479 174.479 197.125 174.479C200.771 174.479 203.853 173.22 206.37 170.703C208.887 168.186 210.146 165.104 210.146 161.458C210.146 157.813 208.887 154.731 206.37 152.214C203.853 149.696 200.771 148.438 197.125 148.438C193.479 148.438 190.398 149.696 187.881 152.214C185.363 154.731 184.104 157.813 184.104 161.458C184.104 165.104 185.363 168.186 187.881 170.703Z" fill="#17C46D"/>
</g>
<defs>
<clipPath id="clip0_169_6">
<rect width="250" height="250" fill="white"/>
</clipPath>
</defs>
</svg>
