<svg width="250" height="250" viewBox="0 0 250 250" fill="none" xmlns="http://www.w3.org/2000/svg">
<mask id="mask0_177_10" style="mask-type:alpha" maskUnits="userSpaceOnUse" x="6" y="6" width="237" height="237">
<rect x="6" y="6" width="237" height="237" fill="#D9D9D9"/>
</mask>
<g mask="url(#mask0_177_10)">
<path d="M85 185H100V165H120V150H100V130H85V150H65V165H85V185ZM135 177.5H185V162.5H135V177.5ZM135 152.5H185V137.5H135V152.5ZM146 114.5L160 100.5L174 114.5L184.5 104L170.5 89.5L184.5 75.5L174 65L160 79L146 65L135.5 75.5L149.5 89.5L135.5 104L146 114.5ZM67.5 97H117.5V82H67.5V97ZM55 215C49.5 215 44.7917 213.042 40.875 209.125C36.9583 205.208 35 200.5 35 195V55C35 49.5 36.9583 44.7917 40.875 40.875C44.7917 36.9583 49.5 35 55 35H195C200.5 35 205.208 36.9583 209.125 40.875C213.042 44.7917 215 49.5 215 55V195C215 200.5 213.042 205.208 209.125 209.125C205.208 213.042 200.5 215 195 215H55ZM55 195H195V55H55V195Z" fill="#527A61"/>
</g>
</svg>
