<svg width="250" height="250" viewBox="0 0 250 250" fill="none" xmlns="http://www.w3.org/2000/svg">
<g clip-path="url(#clip0_169_26)">
<path fill-rule="evenodd" clip-rule="evenodd" d="M74.3252 216.357C86.3904 221.564 99.2821 224.167 113 224.167V204.333C90.5224 204.168 71.6807 196.317 56.4752 180.781C41.2696 165.245 33.6668 146.651 33.6668 125C33.6668 122.025 33.8734 119.05 34.2866 116.075C34.6998 113.1 35.1543 110.125 35.6502 107.15L83.2502 154.75H93.1668V125H73.3335V105.167H93.1668C95.9766 105.167 98.3318 104.216 100.232 102.316C102.133 100.415 103.083 98.0597 103.083 95.25V75.4167H122.917C128.371 75.4167 133.04 73.4747 136.924 69.5906C140.808 65.7066 142.75 61.0375 142.75 55.5833V51.6167C154.65 56.4097 164.691 63.558 172.872 73.0615C181.053 82.5649 186.714 93.3493 189.854 105.415H210.184C205.721 82.6063 194.441 63.6406 176.343 48.5177C158.245 33.3948 137.131 25.8333 113 25.8333C99.2821 25.8333 86.3904 28.4365 74.3252 33.6427C62.2599 38.849 51.7647 45.9146 42.8397 54.8396C33.9147 63.7646 26.8491 74.2597 21.6429 86.325C16.4366 98.3903 13.8335 111.282 13.8335 125C13.8335 138.718 16.4366 151.61 21.6429 163.675C26.8491 175.74 33.9147 186.235 42.8397 195.16C51.7647 204.085 62.2599 211.151 74.3252 216.357Z" fill="#2F5C9F"/>
<path fill-rule="evenodd" clip-rule="evenodd" d="M203.242 219.208L171.508 187.475C168.038 189.458 164.319 191.111 160.352 192.433C156.386 193.756 152.171 194.417 147.708 194.417C135.313 194.417 124.776 190.078 116.099 181.401C107.422 172.724 103.083 162.188 103.083 149.792C103.083 137.396 107.422 126.859 116.099 118.182C124.776 109.505 135.313 105.167 147.708 105.167C160.104 105.167 170.641 109.505 179.318 118.182C187.995 126.859 192.333 137.396 192.333 149.792C192.333 154.254 191.672 158.469 190.35 162.435C189.028 166.402 187.375 170.121 185.392 173.592L217.125 205.325L203.242 219.208ZM165.311 167.394C160.518 172.187 154.65 174.583 147.708 174.583C140.767 174.583 134.899 172.187 130.106 167.394C125.313 162.601 122.917 156.733 122.917 149.792C122.917 142.85 125.313 136.983 130.106 132.19C134.899 127.397 140.767 125 147.708 125C154.65 125 160.518 127.397 165.311 132.19C170.104 136.983 172.5 142.85 172.5 149.792C172.5 156.733 170.104 162.601 165.311 167.394Z" fill="#17C46D"/>
</g>
<defs>
<clipPath id="clip0_169_26">
<rect width="250" height="250" fill="white"/>
</clipPath>
</defs>
</svg>
