<svg width="250" height="250" viewBox="0 0 250 250" fill="none" xmlns="http://www.w3.org/2000/svg">
<g clip-path="url(#clip0_172_15)">
<path fill-rule="evenodd" clip-rule="evenodd" d="M74.3252 216.357C86.3904 221.564 99.2821 224.167 113 224.167V204.333C90.5224 204.168 71.6807 196.317 56.4752 180.781C41.2696 165.245 33.6668 146.651 33.6668 125C33.6668 122.025 33.8734 119.05 34.2866 116.075C34.6998 113.1 35.1543 110.125 35.6502 107.15L83.2502 154.75H93.1668V125H73.3335V105.167H93.1668C95.9766 105.167 98.3318 104.216 100.232 102.316C102.133 100.415 103.083 98.0597 103.083 95.25V75.4167H122.917C128.371 75.4167 133.04 73.4747 136.924 69.5906C140.808 65.7066 142.75 61.0375 142.75 55.5833V51.6167C154.65 56.4097 164.691 63.558 172.872 73.0615C181.053 82.5649 186.714 93.3493 189.854 105.415H210.184C205.721 82.6063 194.441 63.6406 176.343 48.5177C158.245 33.3948 137.131 25.8333 113 25.8333C99.2821 25.8333 86.3904 28.4365 74.3252 33.6427C62.2599 38.849 51.7647 45.9146 42.8397 54.8396C33.9147 63.7646 26.8491 74.2597 21.6429 86.325C16.4366 98.3903 13.8335 111.282 13.8335 125C13.8335 138.718 16.4366 151.61 21.6429 163.675C26.8491 175.74 33.9147 186.235 42.8397 195.16C51.7647 204.085 62.2599 211.151 74.3252 216.357Z" fill="#2F5C9F"/>
<path d="M173.1 244L163.8 234.714L173.1 225.429L182.4 234.714L173.1 244ZM151.71 234.714L145.2 228.214L163.49 209.952L170 216.452L151.71 234.714ZM191.7 225.429L182.4 216.143L191.7 206.857L201 216.143L191.7 225.429ZM135.9 225.429L126.6 216.143L135.9 206.857L145.2 216.143L135.9 225.429ZM142.1 200.667C132.697 200.667 124.663 197.339 117.997 190.685C111.332 184.03 108 176.008 108 166.619C108 158.056 110.842 150.575 116.525 144.179C122.208 137.782 129.235 134.016 137.605 132.881C140.912 127 145.432 122.383 151.167 119.03C156.903 115.677 163.18 114 170 114C179.3 114 187.386 116.966 194.257 122.899C201.129 128.831 205.288 136.234 206.735 145.107C213.865 145.726 219.858 148.667 224.715 153.929C229.572 159.19 232 165.484 232 172.81C232 180.548 229.288 187.125 223.863 192.542C218.438 197.958 211.85 200.667 204.1 200.667H142.1ZM142.1 188.286H204.1C208.44 188.286 212.108 186.79 215.105 183.798C218.102 180.806 219.6 177.143 219.6 172.81C219.6 168.476 218.102 164.813 215.105 161.821C212.108 158.829 208.44 157.333 204.1 157.333H194.8V151.143C194.8 144.333 192.372 138.504 187.515 133.655C182.658 128.806 176.82 126.381 170 126.381C165.04 126.381 160.519 127.722 156.438 130.405C152.356 133.087 149.282 136.698 147.215 141.238L145.665 144.952H141.79C135.9 145.159 130.862 147.351 126.677 151.53C122.493 155.708 120.4 160.738 120.4 166.619C120.4 172.603 122.518 177.71 126.755 181.94C130.992 186.171 136.107 188.286 142.1 188.286Z" fill="#17C46D"/>
</g>
<defs>
<clipPath id="clip0_172_15">
<rect width="250" height="250" fill="white"/>
</clipPath>
</defs>
</svg>
