<svg width="250" height="250" viewBox="0 0 250 250" fill="none" xmlns="http://www.w3.org/2000/svg">
<g clip-path="url(#clip0_393_17)">
<mask id="mask0_393_17" style="mask-type:alpha" maskUnits="userSpaceOnUse" x="4" y="9" width="242" height="242">
<rect x="4" y="9" width="241.025" height="241.025" fill="#D9D9D9"/>
</mask>
<g mask="url(#mask0_393_17)">
<path d="M204.353 169.181L188.786 153.615C196.151 146.753 201.926 138.635 206.11 129.262C210.295 119.888 212.387 109.929 212.387 99.3844C212.387 88.8395 210.295 78.9642 206.11 69.7584C201.926 60.5525 196.151 52.5184 188.786 45.6558L204.353 29.5875C213.726 38.4585 221.174 48.9197 226.698 60.971C232.221 73.0222 234.983 85.8267 234.983 99.3844C234.983 112.942 232.221 125.747 226.698 137.798C221.174 149.849 213.726 160.31 204.353 169.181ZM172.216 137.045L156.148 120.976C159.16 118.131 161.587 114.909 163.428 111.31C165.27 107.711 166.19 103.736 166.19 99.3844C166.19 95.0326 165.27 91.0573 163.428 87.4587C161.587 83.86 159.16 80.638 156.148 77.7925L172.216 61.7242C177.572 66.5782 181.756 72.2272 184.769 78.6713C187.782 85.1154 189.289 92.0197 189.289 99.3844C189.289 106.749 187.782 113.653 184.769 120.098C181.756 126.542 177.572 132.191 172.216 137.045ZM94.3848 139.555C83.3378 139.555 73.8809 135.622 66.0141 127.755C58.1473 119.888 54.2139 110.431 54.2139 99.3844C54.2139 88.3374 58.1473 78.8805 66.0141 71.0137C73.8809 63.1469 83.3378 59.2135 94.3848 59.2135C105.432 59.2135 114.889 63.1469 122.755 71.0137C130.622 78.8805 134.556 88.3374 134.556 99.3844C134.556 110.431 130.622 119.888 122.755 127.755C114.889 135.622 105.432 139.555 94.3848 139.555ZM14.043 219.897V191.777C14.043 186.254 15.4657 181.065 18.3111 176.211C21.1566 171.357 25.09 167.675 30.1113 165.164C38.6476 160.812 48.2719 157.13 58.9842 154.117C69.6964 151.104 81.4966 149.598 94.3848 149.598C107.273 149.598 119.073 151.104 129.785 154.117C140.498 157.13 150.122 160.812 158.658 165.164C163.68 167.675 167.613 171.357 170.458 176.211C173.304 181.065 174.727 186.254 174.727 191.777V219.897H14.043ZM34.1284 199.812H154.641V191.777C154.641 189.936 154.181 188.263 153.26 186.756C152.34 185.25 151.126 184.078 149.62 183.241C143.594 180.228 135.853 177.216 126.396 174.203C116.939 171.19 106.269 169.683 94.3848 169.683C82.5009 169.683 71.8305 171.19 62.3736 174.203C52.9167 177.216 45.1754 180.228 39.1498 183.241C37.6434 184.078 36.4299 185.25 35.5093 186.756C34.5887 188.263 34.1284 189.936 34.1284 191.777V199.812ZM94.3848 119.47C99.9083 119.47 104.637 117.503 108.57 113.57C112.504 109.636 114.47 104.908 114.47 99.3844C114.47 93.8609 112.504 89.1325 108.57 85.199C104.637 81.2656 99.9083 79.299 94.3848 79.299C88.8613 79.299 84.1328 81.2656 80.1994 85.199C76.266 89.1325 74.2993 93.8609 74.2993 99.3844C74.2993 104.908 76.266 109.636 80.1994 113.57C84.1328 117.503 88.8613 119.47 94.3848 119.47Z" fill="#4C6F59"/>
</g>
</g>
<defs>
<clipPath id="clip0_393_17">
<rect width="250" height="250" fill="white"/>
</clipPath>
</defs>
</svg>
