<svg width="250" height="250" viewBox="0 0 250 250" fill="none" xmlns="http://www.w3.org/2000/svg">
<g clip-path="url(#clip0_280_20)">
<path fill-rule="evenodd" clip-rule="evenodd" d="M74.3252 216.357C86.3904 221.564 99.2821 224.167 113 224.167V204.333C90.5224 204.168 71.6807 196.317 56.4752 180.781C41.2696 165.245 33.6668 146.651 33.6668 125C33.6668 122.025 33.8734 119.05 34.2866 116.075C34.6998 113.1 35.1543 110.125 35.6502 107.15L83.2502 154.75H93.1668V125H73.3335V105.167H93.1668C95.9766 105.167 98.3318 104.216 100.232 102.316C102.133 100.415 103.083 98.0597 103.083 95.25V75.4166H122.917C128.371 75.4166 133.04 73.4746 136.924 69.5906C140.808 65.7066 142.75 61.0375 142.75 55.5833V51.6166C154.65 56.4097 164.691 63.558 172.872 73.0614C181.053 82.5649 186.714 93.3493 189.854 105.415H210.184C205.721 82.6062 194.441 63.6406 176.343 48.5177C158.245 33.3948 137.131 25.8333 113 25.8333C99.2821 25.8333 86.3904 28.4364 74.3252 33.6427C62.2599 38.8489 51.7647 45.9146 42.8397 54.8396C33.9147 63.7646 26.8491 74.2597 21.6429 86.325C16.4366 98.3903 13.8335 111.282 13.8335 125C13.8335 138.718 16.4366 151.61 21.6429 163.675C26.8491 175.74 33.9147 186.235 42.8397 195.16C51.7647 204.085 62.2599 211.151 74.3252 216.357Z" fill="#2F5C9F"/>
<mask id="mask0_280_20" style="mask-type:alpha" maskUnits="userSpaceOnUse" x="98" y="114" width="130" height="130">
<rect x="98" y="114" width="130" height="130" fill="#D9D9D9"/>
</mask>
<g mask="url(#mask0_280_20)">
<path d="M141.333 222.333C138.354 222.333 135.804 221.273 133.682 219.151C131.561 217.029 130.5 214.479 130.5 211.5V195.25H146.75V183.062C143.59 182.882 140.589 182.182 137.745 180.964C134.901 179.745 132.306 177.917 129.958 175.479V169.521H123.729L106.125 151.917C109.375 147.764 113.392 144.83 118.177 143.115C122.962 141.399 127.792 140.542 132.667 140.542C135.104 140.542 137.474 140.722 139.776 141.083C142.078 141.444 144.403 142.121 146.75 143.115V135.667H211.75V206.083C211.75 210.597 210.17 214.434 207.01 217.594C203.851 220.753 200.014 222.333 195.5 222.333H141.333ZM157.583 195.25H190.083V206.083C190.083 207.618 190.602 208.904 191.641 209.943C192.679 210.981 193.965 211.5 195.5 211.5C197.035 211.5 198.321 210.981 199.359 209.943C200.398 208.904 200.917 207.618 200.917 206.083V146.5H157.583V149.75L190.083 182.25V189.833H182.5L167.062 174.396L165.979 175.479C164.715 176.743 163.384 177.871 161.984 178.865C160.585 179.858 159.118 180.625 157.583 181.167V195.25ZM128.333 158.687H140.792V170.333C141.875 171.056 143.003 171.552 144.177 171.823C145.351 172.094 146.569 172.229 147.833 172.229C149.91 172.229 151.783 171.913 153.453 171.281C155.123 170.649 156.771 169.521 158.396 167.896L159.479 166.812L151.896 159.229C149.278 156.611 146.344 154.648 143.094 153.339C139.844 152.029 136.368 151.375 132.667 151.375C130.861 151.375 129.146 151.51 127.521 151.781C125.896 152.052 124.271 152.458 122.646 153L128.333 158.687ZM179.25 206.083H141.333V211.5H180.063C179.792 210.687 179.589 209.83 179.453 208.927C179.318 208.024 179.25 207.076 179.25 206.083Z" fill="#17C46D"/>
</g>
</g>
<defs>
<clipPath id="clip0_280_20">
<rect width="250" height="250" fill="white"/>
</clipPath>
</defs>
</svg>
