<svg width="250" height="250" viewBox="0 0 250 250" fill="none" xmlns="http://www.w3.org/2000/svg">
<mask id="mask0_178_32" style="mask-type:alpha" maskUnits="userSpaceOnUse" x="16" y="16" width="218" height="218">
<rect x="16" y="16" width="218" height="218" fill="#D9D9D9"/>
</mask>
<g mask="url(#mask0_178_32)">
<path d="M85 175C87.8333 175 90.2083 174.042 92.125 172.125C94.0417 170.208 95 167.833 95 165C95 162.167 94.0417 159.792 92.125 157.875C90.2083 155.958 87.8333 155 85 155C82.1667 155 79.7917 155.958 77.875 157.875C75.9583 159.792 75 162.167 75 165C75 167.833 75.9583 170.208 77.875 172.125C79.7917 174.042 82.1667 175 85 175ZM85 135C87.8333 135 90.2083 134.042 92.125 132.125C94.0417 130.208 95 127.833 95 125C95 122.167 94.0417 119.792 92.125 117.875C90.2083 115.958 87.8333 115 85 115C82.1667 115 79.7917 115.958 77.875 117.875C75.9583 119.792 75 122.167 75 125C75 127.833 75.9583 130.208 77.875 132.125C79.7917 134.042 82.1667 135 85 135ZM85 95C87.8333 95 90.2083 94.0417 92.125 92.125C94.0417 90.2083 95 87.8333 95 85C95 82.1667 94.0417 79.7917 92.125 77.875C90.2083 75.9583 87.8333 75 85 75C82.1667 75 79.7917 75.9583 77.875 77.875C75.9583 79.7917 75 82.1667 75 85C75 87.8333 75.9583 90.2083 77.875 92.125C79.7917 94.0417 82.1667 95 85 95ZM115 175H175V155H115V175ZM115 135H175V115H115V135ZM115 95H175V75H115V95ZM55 215C49.5 215 44.7917 213.042 40.875 209.125C36.9583 205.208 35 200.5 35 195V55C35 49.5 36.9583 44.7917 40.875 40.875C44.7917 36.9583 49.5 35 55 35H195C200.5 35 205.208 36.9583 209.125 40.875C213.042 44.7917 215 49.5 215 55V195C215 200.5 213.042 205.208 209.125 209.125C205.208 213.042 200.5 215 195 215H55ZM55 195H195V55H55V195Z" fill="#527A61"/>
</g>
</svg>
