<svg width="250" height="250" viewBox="0 0 250 250" fill="none" xmlns="http://www.w3.org/2000/svg">
<path d="M34.3779 206C29.9296 206 26.1215 204.418 22.9538 201.253C19.7861 198.089 18.2022 194.285 18.2022 189.841L18 64.6315C18 60.1877 19.5839 56.3835 22.7516 53.219C25.9193 50.0545 29.7274 48.4722 34.1757 48.4722L176.603 47.3613L160.427 63.5205L34.1757 64.6315L34.3779 189.841L217.851 188.73L217.649 120.482L233.824 104.323L234.026 188.73C234.026 193.174 232.443 196.978 229.275 200.142C226.107 203.307 222.299 204.889 217.851 204.889L34.3779 206ZM136.77 144.317V109.978L210.976 35.8478C212.594 34.2319 214.413 33.0199 216.435 32.2119C218.457 31.404 220.479 31 222.501 31C224.658 31 226.714 31.404 228.668 32.2119C230.623 33.0199 232.409 34.2319 234.026 35.8478L245.35 47.3613C246.832 48.9772 247.978 50.7614 248.787 52.714C249.596 54.6666 250 56.6529 250 58.6728C250 60.6927 249.629 62.6789 248.888 64.6315C248.147 66.5841 246.967 68.3683 245.35 69.9843L171.143 144.317H136.77ZM152.946 128.158H164.269L211.178 81.2957L205.517 75.64L199.653 69.9843L152.946 116.644V128.158Z" fill="#527A61"/>
</svg>
