<svg width="250" height="250" viewBox="0 0 250 250" fill="none" xmlns="http://www.w3.org/2000/svg">
<g clip-path="url(#clip0_263_2)">
<mask id="mask0_263_2" style="mask-type:alpha" maskUnits="userSpaceOnUse" x="-1" y="-1" width="251" height="251">
<rect x="-1" y="-1" width="251" height="251" fill="#527A61"/>
</mask>
<g mask="url(#mask0_263_2)">
<g filter="url(#filter0_d_263_2)">
<path fill-rule="evenodd" clip-rule="evenodd" d="M13.6231 138C13.4154 135.917 13.2596 133.833 13.1558 131.75C13.0519 129.667 13 127.583 13 125.5C13 109.875 15.9077 95.2396 21.7232 81.5938C27.5387 67.9479 35.535 56.0729 45.7121 45.9688C55.8892 35.8646 67.7279 27.8438 81.2281 21.9063C94.7283 15.9688 109.267 13 124.844 13C140.421 13 155.012 15.9688 168.616 21.9063C182.22 27.8438 194.059 35.8646 204.132 45.9688C214.205 56.0729 222.202 67.9479 228.121 81.5938C234.04 95.2396 237 109.875 237 125.5C237 127.583 236.948 129.667 236.844 131.75C236.74 133.833 236.585 135.917 236.377 138H211.142C211.557 135.917 211.817 133.833 211.921 131.75C212.025 129.667 212.076 127.583 212.076 125.5C212.076 123.417 212.025 121.333 211.921 119.25C211.817 117.167 211.557 115.083 211.142 113H174.38C174.587 115.083 174.691 117.167 174.691 119.25V131.75C174.691 133.833 174.587 135.917 174.38 138H149.768V127.688C149.768 125.188 149.716 122.687 149.612 120.187C149.508 117.687 149.352 115.292 149.145 113H100.855C100.648 115.292 100.492 117.687 100.388 120.187C100.284 122.687 100.232 125.188 100.232 127.688V138H75.6203C75.4126 135.917 75.3088 133.833 75.3088 131.75V119.25C75.3088 117.167 75.4126 115.083 75.6203 113H38.8581C38.4427 115.083 38.1831 117.167 38.0793 119.25C37.9754 121.333 37.9235 123.417 37.9235 125.5C37.9235 127.583 37.9754 129.667 38.0793 131.75C38.1831 133.833 38.4427 135.917 38.8581 138H13.6231ZM78.4242 88H46.3352C51.1122 77.7917 57.5508 68.8854 65.6509 61.2812C73.751 53.6771 82.7858 48 92.7552 44.25C89.8475 50.0833 87.1474 56.5938 84.6551 63.7813C82.1627 70.9688 80.0858 79.0417 78.4242 88ZM145.406 88H104.282C106.152 79.0417 108.696 70.2917 111.915 61.75C115.134 53.2084 119.444 45.2917 124.844 38C130.244 45.2917 134.502 53.2084 137.618 61.75C140.733 70.2917 143.329 79.0417 145.406 88ZM203.665 88H171.576C169.914 79.0417 167.785 71.0729 165.189 64.0938C162.593 57.1146 159.841 50.5 156.933 44.25C166.903 48 175.989 53.6771 184.193 61.2812C192.397 68.8854 198.888 77.7917 203.665 88Z" fill="url(#paint0_linear_263_2)"/>
</g>
<path fill-rule="evenodd" clip-rule="evenodd" d="M112.5 225.5V238H137.5V225.5C137.5 215.083 141.146 206.229 148.437 198.937C155.729 191.646 164.583 188 175 188H250V163H175C165 163 155.677 165.188 147.031 169.563C138.385 173.938 131.042 180.083 125 188C118.958 180.083 111.615 173.938 102.969 169.563C94.3229 165.188 85 163 75 163H0V188H75C85.4167 188 94.2708 191.646 101.562 198.937C108.854 206.229 112.5 215.083 112.5 225.5Z" fill="#F6FFFC"/>
</g>
</g>
<defs>
<filter id="filter0_d_263_2" x="9" y="13" width="232" height="133" filterUnits="userSpaceOnUse" color-interpolation-filters="sRGB">
<feFlood flood-opacity="0" result="BackgroundImageFix"/>
<feColorMatrix in="SourceAlpha" type="matrix" values="0 0 0 0 0 0 0 0 0 0 0 0 0 0 0 0 0 0 127 0" result="hardAlpha"/>
<feOffset dy="4"/>
<feGaussianBlur stdDeviation="2"/>
<feComposite in2="hardAlpha" operator="out"/>
<feColorMatrix type="matrix" values="0 0 0 0 0 0 0 0 0 0 0 0 0 0 0 0 0 0 0.25 0"/>
<feBlend mode="normal" in2="BackgroundImageFix" result="effect1_dropShadow_263_2"/>
<feBlend mode="normal" in="SourceGraphic" in2="effect1_dropShadow_263_2" result="shape"/>
</filter>
<linearGradient id="paint0_linear_263_2" x1="125" y1="13" x2="125" y2="138" gradientUnits="userSpaceOnUse">
<stop stop-color="#17F251"/>
<stop offset="0.389423" stop-color="#00FFD5"/>
<stop offset="0.894231" stop-color="#FFE100"/>
</linearGradient>
<clipPath id="clip0_263_2">
<rect width="250" height="250" fill="white"/>
</clipPath>
</defs>
</svg>
